<mxfile host="app.diagrams.net" modified="2024-06-08T12:46:28.345Z" agent="Mozilla/5.0 (Macintosh; Intel Mac OS X 10_15_7) AppleWebKit/537.36 (KHTML, like Gecko) Chrome/125.0.0.0 Safari/537.36" etag="PT2sIN4CJTooUetyXfX6" version="24.5.2" type="device">
  <diagram id="C5RBs43oDa-KdzZeNtuy" name="Page-1">
    <mxGraphModel dx="1831" dy="612" grid="1" gridSize="10" guides="1" tooltips="1" connect="1" arrows="1" fold="1" page="1" pageScale="1" pageWidth="827" pageHeight="1169" math="0" shadow="0">
      <root>
        <mxCell id="WIyWlLk6GJQsqaUBKTNV-0" />
        <mxCell id="WIyWlLk6GJQsqaUBKTNV-1" parent="WIyWlLk6GJQsqaUBKTNV-0" />
        <mxCell id="Rz15Se8ZV94DFHx8ccqt-21" style="edgeStyle=orthogonalEdgeStyle;rounded=0;orthogonalLoop=1;jettySize=auto;html=1;entryX=0.5;entryY=0;entryDx=0;entryDy=0;" edge="1" parent="WIyWlLk6GJQsqaUBKTNV-1" source="Rz15Se8ZV94DFHx8ccqt-0" target="Rz15Se8ZV94DFHx8ccqt-2">
          <mxGeometry relative="1" as="geometry" />
        </mxCell>
        <mxCell id="Rz15Se8ZV94DFHx8ccqt-0" value="Начало" style="ellipse;whiteSpace=wrap;html=1;" vertex="1" parent="WIyWlLk6GJQsqaUBKTNV-1">
          <mxGeometry x="150" y="30" width="120" height="40" as="geometry" />
        </mxCell>
        <mxCell id="Rz15Se8ZV94DFHx8ccqt-20" style="edgeStyle=orthogonalEdgeStyle;rounded=0;orthogonalLoop=1;jettySize=auto;html=1;entryX=0.5;entryY=0;entryDx=0;entryDy=0;" edge="1" parent="WIyWlLk6GJQsqaUBKTNV-1" source="Rz15Se8ZV94DFHx8ccqt-2" target="Rz15Se8ZV94DFHx8ccqt-3">
          <mxGeometry relative="1" as="geometry" />
        </mxCell>
        <mxCell id="Rz15Se8ZV94DFHx8ccqt-2" value="Получение исходных данных" style="shape=parallelogram;perimeter=parallelogramPerimeter;whiteSpace=wrap;html=1;fixedSize=1;size=19.999999999999886;" vertex="1" parent="WIyWlLk6GJQsqaUBKTNV-1">
          <mxGeometry x="130" y="90" width="160" height="40" as="geometry" />
        </mxCell>
        <mxCell id="Rz15Se8ZV94DFHx8ccqt-19" style="edgeStyle=orthogonalEdgeStyle;rounded=0;orthogonalLoop=1;jettySize=auto;html=1;entryX=0.5;entryY=0;entryDx=0;entryDy=0;" edge="1" parent="WIyWlLk6GJQsqaUBKTNV-1" source="Rz15Se8ZV94DFHx8ccqt-3" target="Rz15Se8ZV94DFHx8ccqt-4">
          <mxGeometry relative="1" as="geometry" />
        </mxCell>
        <mxCell id="Rz15Se8ZV94DFHx8ccqt-3" value="Получение индексов кавычек в строке" style="shape=parallelogram;perimeter=parallelogramPerimeter;whiteSpace=wrap;html=1;fixedSize=1;size=-10.000000000000114;" vertex="1" parent="WIyWlLk6GJQsqaUBKTNV-1">
          <mxGeometry x="130" y="160" width="160" height="40" as="geometry" />
        </mxCell>
        <mxCell id="Rz15Se8ZV94DFHx8ccqt-17" value="" style="edgeStyle=orthogonalEdgeStyle;rounded=0;orthogonalLoop=1;jettySize=auto;html=1;" edge="1" parent="WIyWlLk6GJQsqaUBKTNV-1" source="Rz15Se8ZV94DFHx8ccqt-4" target="Rz15Se8ZV94DFHx8ccqt-5">
          <mxGeometry relative="1" as="geometry" />
        </mxCell>
        <mxCell id="Rz15Se8ZV94DFHx8ccqt-4" value="Присвоение индексов переменным" style="shape=parallelogram;perimeter=parallelogramPerimeter;whiteSpace=wrap;html=1;fixedSize=1;size=-30.000000000000114;" vertex="1" parent="WIyWlLk6GJQsqaUBKTNV-1">
          <mxGeometry x="130" y="220" width="160" height="40" as="geometry" />
        </mxCell>
        <mxCell id="Rz15Se8ZV94DFHx8ccqt-12" style="edgeStyle=orthogonalEdgeStyle;rounded=0;orthogonalLoop=1;jettySize=auto;html=1;exitX=0;exitY=0.5;exitDx=0;exitDy=0;entryX=0.5;entryY=0;entryDx=0;entryDy=0;" edge="1" parent="WIyWlLk6GJQsqaUBKTNV-1" source="Rz15Se8ZV94DFHx8ccqt-5" target="Rz15Se8ZV94DFHx8ccqt-7">
          <mxGeometry relative="1" as="geometry" />
        </mxCell>
        <mxCell id="Rz15Se8ZV94DFHx8ccqt-16" style="edgeStyle=orthogonalEdgeStyle;rounded=0;orthogonalLoop=1;jettySize=auto;html=1;" edge="1" parent="WIyWlLk6GJQsqaUBKTNV-1" source="Rz15Se8ZV94DFHx8ccqt-5">
          <mxGeometry relative="1" as="geometry">
            <mxPoint x="380" y="430" as="targetPoint" />
          </mxGeometry>
        </mxCell>
        <mxCell id="Rz15Se8ZV94DFHx8ccqt-5" value="Найдены ли кавычки? Находится ли закрывающая дальше открывающей?&amp;nbsp;" style="rhombus;whiteSpace=wrap;html=1;" vertex="1" parent="WIyWlLk6GJQsqaUBKTNV-1">
          <mxGeometry x="70" y="290" width="280" height="110" as="geometry" />
        </mxCell>
        <mxCell id="Rz15Se8ZV94DFHx8ccqt-11" style="edgeStyle=orthogonalEdgeStyle;rounded=0;orthogonalLoop=1;jettySize=auto;html=1;entryX=0.5;entryY=0;entryDx=0;entryDy=0;" edge="1" parent="WIyWlLk6GJQsqaUBKTNV-1" source="Rz15Se8ZV94DFHx8ccqt-7" target="Rz15Se8ZV94DFHx8ccqt-9">
          <mxGeometry relative="1" as="geometry" />
        </mxCell>
        <mxCell id="Rz15Se8ZV94DFHx8ccqt-7" value="Обрезка текста между кавычками и его возвращение" style="rounded=0;whiteSpace=wrap;html=1;" vertex="1" parent="WIyWlLk6GJQsqaUBKTNV-1">
          <mxGeometry x="-10" y="430" width="120" height="60" as="geometry" />
        </mxCell>
        <mxCell id="Rz15Se8ZV94DFHx8ccqt-10" style="edgeStyle=orthogonalEdgeStyle;rounded=0;orthogonalLoop=1;jettySize=auto;html=1;entryX=0.5;entryY=0;entryDx=0;entryDy=0;" edge="1" parent="WIyWlLk6GJQsqaUBKTNV-1" source="Rz15Se8ZV94DFHx8ccqt-8" target="Rz15Se8ZV94DFHx8ccqt-9">
          <mxGeometry relative="1" as="geometry" />
        </mxCell>
        <mxCell id="Rz15Se8ZV94DFHx8ccqt-8" value="Возврат всего исходного текста" style="rounded=0;whiteSpace=wrap;html=1;" vertex="1" parent="WIyWlLk6GJQsqaUBKTNV-1">
          <mxGeometry x="320" y="430" width="120" height="60" as="geometry" />
        </mxCell>
        <mxCell id="Rz15Se8ZV94DFHx8ccqt-9" value="Конец" style="ellipse;whiteSpace=wrap;html=1;" vertex="1" parent="WIyWlLk6GJQsqaUBKTNV-1">
          <mxGeometry x="150" y="500" width="120" height="40" as="geometry" />
        </mxCell>
      </root>
    </mxGraphModel>
  </diagram>
</mxfile>
